<?xml version="1.0" encoding="UTF-8"?>
<svg width="20px" height="25px" viewBox="0 0 20 25" version="1.1" xmlns="http://www.w3.org/2000/svg" xmlns:xlink="http://www.w3.org/1999/xlink">
    <!-- Generator: Sketch 61.1 (89650) - https://sketch.com -->
    <title>Group 4</title>
    <desc>Created with Sketch.</desc>
    <defs>
        <linearGradient x1="58.2591541%" y1="91.5456231%" x2="58.2591541%" y2="0%" id="linearGradient-1">
            <stop stop-color="#FFFFFF" offset="0%"></stop>
            <stop stop-color="#FFFFFF" stop-opacity="0" offset="100%"></stop>
        </linearGradient>
        <linearGradient x1="58.2591541%" y1="92.2272009%" x2="58.2591541%" y2="0%" id="linearGradient-2">
            <stop stop-color="#FFFFFF" offset="0.73902027%"></stop>
            <stop stop-color="#FFFFFF" stop-opacity="0" offset="100%"></stop>
        </linearGradient>
        <linearGradient x1="68.3939045%" y1="-39.7819005%" x2="68.3939045%" y2="100%" id="linearGradient-3">
            <stop stop-color="#FFFFFF" stop-opacity="0" offset="0%"></stop>
            <stop stop-color="#FFFFFF" stop-opacity="0" offset="22.6318088%"></stop>
            <stop stop-color="#FFFFFF" offset="100%"></stop>
        </linearGradient>
    </defs>
    <g id="Symbols" stroke="none" stroke-width="1" fill="none" fill-rule="evenodd">
        <g id="Atoms-/-Logos-/-Icon-/-Pharmlab-White" transform="translate(-7.000000, -4.000000)">
            <g id="Group-4" transform="translate(8.000000, 5.000000)">
                <g id="Group-3" transform="translate(0.000000, 0.900000)">
                    <circle id="Oval" fill="url(#linearGradient-1)" cx="6.18137171" cy="17.352" r="1.188"></circle>
                    <circle id="Oval-Copy-3" fill="url(#linearGradient-2)" cx="9.74537171" cy="13.892" r="1"></circle>
                    <circle id="Oval-Copy-4" fill="url(#linearGradient-2)" cx="11.3293717" cy="17.748" r="1"></circle>
                    <path d="M11.6533717,0.435233876 L11.6533717,7.38 L16.776323,17.4182522 C17.5946697,18.7821634 17.1524024,20.5512329 15.7884912,21.3695796 C15.3408948,21.6381374 14.828726,21.78 14.3067434,21.78 L2.88,21.78 C1.28941992,21.78 0,20.4905801 0,18.9 C0,18.3780174 0.14186256,17.8658486 0.410420374,17.4182522 L5.53337171,7.38 L5.53337171,0.435233876" id="Path" stroke="url(#linearGradient-3)" stroke-width="2" stroke-linejoin="round"></path>
                    <g id="Group-11" transform="translate(4.993372, 14.580000)"></g>
                </g>
                <line x1="4.5" y1="0.45" x2="12.6" y2="0.45" id="Line-6" stroke="#FFFFFF" stroke-width="2" stroke-linecap="round" stroke-linejoin="round"></line>
            </g>
        </g>
    </g>
</svg>