<svg xmlns="http://www.w3.org/2000/svg" width="33" height="33" viewBox="0 0 33 33">
    <defs>
        <linearGradient id="a" x1="-2.636%" x2="50%" y1="53.765%" y2="46.235%">
            <stop offset="0%" stop-color="#FFF" stop-opacity="0"/>
            <stop offset="18.336%" stop-color="#FFF" stop-opacity="0"/>
            <stop offset="100%" stop-color="#FFF"/>
        </linearGradient>
        <linearGradient id="b" x1="100%" y1="-3.605%" y2="65.139%">
            <stop offset="0%" stop-color="#FFF" stop-opacity="0"/>
            <stop offset="17.729%" stop-color="#FFF" stop-opacity="0"/>
            <stop offset="100%" stop-color="#FFF"/>
        </linearGradient>
        <linearGradient id="c" x1="68.472%" x2="35.293%" y1="100%" y2="67.695%">
            <stop offset="0%" stop-color="#FFF" stop-opacity="0"/>
            <stop offset="18.336%" stop-color="#FFF" stop-opacity="0"/>
            <stop offset="100%" stop-color="#FFF"/>
        </linearGradient>
    </defs>
    <g fill="none" fill-rule="evenodd" stroke-linecap="round" stroke-linejoin="round" stroke-width="2">
        <path stroke="url(#a)" d="M.349 10.108l8.608-4.97a1.748 1.748 0 0 1 1.748 0l8.61 4.97" transform="rotate(60 13.417 22.367)"/>
        <path stroke="url(#b)" d="M25.6 7.162v9.94c0 .625-.333 1.202-.874 1.514l-8.609 4.97" transform="rotate(60 12.26 15.45)"/>
        <path stroke="url(#c)" d="M15.874 29.45l-8.609-4.97a1.748 1.748 0 0 1-.874-1.514v-9.94" transform="rotate(60 17.967 16.864)"/>
        <circle cx="16.5" cy="16.5" r="2.5" stroke="#FFF"/>
    </g>
</svg>
