<?xml version="1.0" encoding="UTF-8"?>
<svg width="27px" height="23px" viewBox="0 0 27 23" version="1.1" xmlns="http://www.w3.org/2000/svg" xmlns:xlink="http://www.w3.org/1999/xlink">
    <!-- Generator: Sketch 60.1 (88133) - https://sketch.com -->
    <title>Group 6 Copy</title>
    <desc>Created with Sketch.</desc>
    <defs>
        <linearGradient x1="66.8110413%" y1="0%" x2="36.0475154%" y2="92.3513789%" id="linearGradient-1">
            <stop stop-color="#FFFFFF" stop-opacity="0" offset="0%"></stop>
            <stop stop-color="#FFFFFF" stop-opacity="0" offset="42.7527797%"></stop>
            <stop stop-color="#FFFFFF" offset="100%"></stop>
        </linearGradient>
        <linearGradient x1="66.4924215%" y1="100%" x2="37.0240735%" y2="9.99351895%" id="linearGradient-2">
            <stop stop-color="#FFFFFF" stop-opacity="0" offset="0%"></stop>
            <stop stop-color="#FFFFFF" stop-opacity="0" offset="42.3115498%"></stop>
            <stop stop-color="#FFFFFF" offset="100%"></stop>
        </linearGradient>
        <linearGradient x1="0%" y1="128.258339%" x2="92.1080786%" y2="128.258339%" id="linearGradient-3">
            <stop stop-color="#FFFFFF" stop-opacity="0" offset="0%"></stop>
            <stop stop-color="#FFFFFF" stop-opacity="0" offset="42.7527797%"></stop>
            <stop stop-color="#FFFFFF" offset="100%"></stop>
        </linearGradient>
    </defs>
    <g id="Symbols" stroke="none" stroke-width="1" fill="none" fill-rule="evenodd" stroke-linejoin="round">
        <g id="Atoms-/-Logos-/-Icon-/-Pharmstock-White" transform="translate(-3.000000, -5.000000)" stroke-width="2">
            <g id="Group-6-Copy">
                <path d="M17.2483407,4.92013082 L25.8571764,9.8904444 C26.3979574,10.2026645 26.7310923,10.779671 26.7310923,11.4041112 L26.7310923,21.3447384 C26.7310923,21.9691785 26.3979574,22.5461851 25.8571764,22.8584052 L17.2483407,27.8287187 C16.7075596,28.1409388 16.0412899,28.1409388 15.5005088,27.8287187 L6.89167319,22.8584052 C6.35089213,22.5461851 6.01775726,21.9691785 6.01775726,21.3447384 L6.01775726,11.4041112 C6.01775726,10.779671 6.35089213,10.2026645 6.89167319,9.8904444 L15.5005088,4.92013082 C16.0412899,4.60791073 16.7075596,4.60791073 17.2483407,4.92013082 Z" id="Polygon" stroke="#FFFFFF" stroke-linecap="round" transform="translate(16.374425, 16.374425) rotate(-30.000000) translate(-16.374425, -16.374425) "></path>
                <line x1="22.2158628" y1="6.20940265" x2="16.4204204" y2="16.4204204" id="Line-2" stroke="#FFFFFF" stroke-linecap="round"></line>
                <line x1="10.5559845" y1="26.5342104" x2="16.4204204" y2="16.4204204" id="Line-2" stroke="url(#linearGradient-1)"></line>
                <line x1="22.2158628" y1="26.5342104" x2="16.4204204" y2="16.4204204" id="Line-2" stroke="#FFFFFF" stroke-linecap="round"></line>
                <line x1="10.5559845" y1="6.20940265" x2="16.4204204" y2="16.4204204" id="Line-2" stroke="url(#linearGradient-2)"></line>
                <line x1="4.69154867" y1="16.425531" x2="16.4204204" y2="16.425531" id="Line-2" stroke="#FFFFFF" stroke-linecap="round"></line>
                <line x1="27.8733186" y1="16.425531" x2="16.4204204" y2="16.425531" id="Line-2" stroke="url(#linearGradient-3)"></line>
            </g>
        </g>
    </g>
</svg>