<?xml version="1.0" encoding="UTF-8"?>
<svg width="56px" height="55px" viewBox="0 0 56 55" version="1.1" xmlns="http://www.w3.org/2000/svg" xmlns:xlink="http://www.w3.org/1999/xlink">
    <!-- Generator: Sketch 60.1 (88133) - https://sketch.com -->
    <title>lcdp-logotype-violet</title>
    <desc>Created with Sketch.</desc>
    <g id="Symbols" stroke="none" stroke-width="1" fill="none" fill-rule="evenodd">
        <g id="Atoms-/-Logos-/-LCDP" transform="translate(1.000000, 1.000000)" fill="#5A65A2" fill-rule="nonzero">
            <g id="lcdp-logotype-violet">
                <path d="M0,0 L0,52.8999718 L53.655835,52.8999718 L53.655835,0 L0,0 Z M52.8647807,52.1090241 L0.791054326,52.1090241 L0.791054326,0.791054326 L52.8647807,0.791054326 L52.8647807,52.1090241 Z" id="Shape" stroke="#5863A6"></path>
                <g id="Group" transform="translate(7.144869, 9.171026)">
                    <g transform="translate(0.319920, 0.000000)">
                        <polygon id="Path" points="0.0599315895 5.46891751 0.0599315895 0.0938430584 0.866235412 0.0938430584 0.866235412 4.67807646 3.54609457 4.67807646 3.54609457 5.46891751"></polygon>
                        <path d="M7.58913078,3.7335674 L4.92473441,3.7335674 C5.00919316,4.50915895 5.44684306,4.8393159 5.93834608,4.8393159 C6.27618109,4.8393159 6.54502012,4.7164668 6.81375252,4.51694366 L7.28222133,5.02369618 C6.92903018,5.36153119 6.50662978,5.55358954 5.89227767,5.55358954 C4.94787525,5.55358954 4.14914286,4.79335412 4.14914286,3.45726358 C4.14914286,2.0905674 4.87098793,1.35325956 5.91531187,1.35325956 C7.05955734,1.35325956 7.61237827,2.28241247 7.61237827,3.37291147 C7.61227163,3.51858149 7.59680885,3.64921529 7.58913078,3.7335674 Z M5.86145875,2.06731992 C5.33167203,2.06731992 5.00919316,2.43597384 4.9399839,3.08103823 L6.81364588,3.08103823 C6.77536217,2.52800402 6.51420121,2.06731992 5.86145875,2.06731992 Z" id="Shape"></path>
                    </g>
                    <g transform="translate(8.851107, 8.957746)">
                        <path d="M2.74384306,2.81038632 C2.41368612,2.47255131 2.12191952,2.3188833 1.76094366,2.3188833 C1.18508853,2.3188833 0.816647887,2.83352716 0.816647887,3.65497384 C0.816647887,4.44602817 1.1544829,5.01420523 1.78408451,5.01420523 C2.16020322,5.01420523 2.38308048,4.84528773 2.69777465,4.51491751 L3.20452716,5.01420523 C2.889833,5.41346479 2.49057344,5.76676258 1.76094366,5.76676258 C0.778044266,5.76676258 0.0178088531,4.93742455 0.0178088531,3.67811469 C0.0178088531,2.34202414 0.801185111,1.56632596 1.78397787,1.56632596 C2.37529577,1.56632596 2.83597988,1.80434608 3.21220523,2.24988732 L2.74384306,2.81038632 Z" id="Path"></path>
                        <path d="M5.5408994,5.76676258 C4.52718109,5.76676258 3.76694567,4.92963984 3.76694567,3.67043662 C3.76694567,2.34970221 4.55032193,1.5664326 5.56382696,1.5664326 C6.59290141,1.5664326 7.36070825,2.38809256 7.36070825,3.64740241 C7.36060161,4.98338632 6.57754527,5.76676258 5.5408994,5.76676258 Z M5.53322133,2.3188833 C4.93422535,2.3188833 4.56578471,2.84877666 4.56578471,3.64729577 C4.56578471,4.53038028 4.97272233,5.01420523 5.57161167,5.01420523 C6.17060765,5.01420523 6.56218913,4.40753119 6.56218913,3.67032998 C6.56208249,2.84867002 6.17050101,2.3188833 5.53322133,2.3188833 Z" id="Shape"></path>
                        <path d="M12.9327465,5.68219718 L12.9327465,3.40170423 C12.9327465,2.58772233 12.6794769,2.29595573 12.1573682,2.29595573 C11.6274748,2.29595573 11.3817767,2.67207445 11.3817767,3.3248169 L11.3817767,5.68209054 L10.5909356,5.68209054 L10.5909356,3.40159759 C10.5909356,2.58761569 10.3374527,2.29584909 9.81534406,2.29584909 C9.2854507,2.29584909 9.03975252,2.67196781 9.03975252,3.32471026 L9.03975252,5.6819839 L8.24891147,5.6819839 L8.24891147,1.65067807 L9.03975252,1.65067807 L9.03975252,2.03458149 C9.23948893,1.74281489 9.58500201,1.56611268 9.99972435,1.56611268 C10.5447606,1.56611268 10.8902736,1.77352716 11.1054728,2.15743058 C11.3972394,1.79645473 11.7120402,1.56611268 12.3416419,1.56611268 C13.2784728,1.56611268 13.7238008,2.18057143 13.7238008,3.37067203 L13.7238008,5.6819839 L12.9327465,5.6819839 L12.9327465,5.68219718 Z" id="Path"></path>
                        <path d="M16.5864406,5.76676258 C16.179503,5.76676258 15.7955996,5.55177666 15.5729356,5.30607847 L15.5729356,6.75734004 L14.7895594,7.16427767 L14.7895594,1.65089135 L15.5729356,1.65089135 L15.5729356,2.03479477 C15.8647022,1.76606237 16.2025372,1.56632596 16.6247243,1.56632596 C17.4924527,1.56632596 18.1760141,2.19614085 18.1760141,3.73186117 C18.1760141,5.11402012 17.4234567,5.76676258 16.5864406,5.76676258 Z M16.4789477,2.29595573 C16.1026157,2.29595573 15.7724588,2.54922535 15.5652575,2.81038632 L15.5652575,4.50745272 C15.7418531,4.74525956 16.1102938,5.0371328 16.5095533,5.0371328 C17.0779437,5.0371328 17.3849598,4.60726761 17.3849598,3.75500201 C17.3849598,2.7412837 17.0624809,2.29595573 16.4789477,2.29595573 Z" id="Shape"></path>
                        <path d="M20.9650724,5.58238229 C20.7732274,5.68987525 20.5043883,5.76676258 20.1896942,5.76676258 C19.6289819,5.76676258 19.2834688,5.4212495 19.2834688,4.69929779 L19.2834688,2.37262978 L18.7076137,2.37262978 L18.7076137,1.65089135 L19.2834688,1.65089135 L19.2834688,0.499074447 L20.0590604,0.0843521127 L20.0590604,1.65078471 L21.0573159,1.65078471 L21.0573159,2.37252314 L20.0590604,2.37252314 L20.0590604,4.56109256 C20.0590604,4.93721127 20.1819095,5.04470423 20.4737827,5.04470423 C20.6809839,5.04470423 20.9114326,4.96803018 21.0574225,4.88346479 L20.9650724,5.58238229 Z" id="Path"></path>
                        <path d="M23.4505272,5.76676258 C22.4370221,5.76676258 21.6767867,4.92963984 21.6767867,3.67043662 C21.6767867,2.34970221 22.4599497,1.5664326 23.473668,1.5664326 C24.5025292,1.5664326 25.2705493,2.38809256 25.2705493,3.64740241 C25.2704427,4.98338632 24.487173,5.76676258 23.4505272,5.76676258 Z M23.4428491,2.3188833 C22.8440664,2.3188833 22.4754125,2.84877666 22.4754125,3.64729577 C22.4754125,4.53038028 22.8823501,5.01420523 23.4814527,5.01420523 C24.0802354,5.01420523 24.4720302,4.40753119 24.4720302,3.67032998 C24.4719235,2.84867002 24.0801288,2.3188833 23.4428491,2.3188833 Z" id="Shape"></path>
                        <path d="M26.5607847,1.12867606 C26.2766962,1.12867606 26.0463541,0.898334004 26.0463541,0.621923541 C26.0463541,0.33783501 26.2766962,0.107492958 26.5607847,0.107492958 C26.8371952,0.107492958 27.0675372,0.33783501 27.0675372,0.621923541 C27.0675372,0.898334004 26.8371952,1.12867606 26.5607847,1.12867606 Z M26.1615252,5.68219718 L26.1615252,1.65089135 L26.9523662,1.65089135 L26.9523662,5.68219718 L26.1615252,5.68219718 Z" id="Shape"></path>
                        <path d="M30.2348471,2.48801408 C30.0659296,2.39577062 29.889334,2.34202414 29.6282797,2.34202414 C29.128992,2.34202414 28.8372254,2.69521529 28.8372254,3.37867002 L28.8372254,5.68230382 L28.0463843,5.68230382 L28.0463843,1.65099799 L28.8372254,1.65099799 L28.8372254,2.03490141 C29.0216056,1.76616901 29.359334,1.5664326 29.7589135,1.5664326 C30.0812857,1.5664326 30.2810221,1.62785714 30.4422616,1.73556338 L30.2348471,2.48801408 Z" id="Path"></path>
                    </g>
                    <g transform="translate(0.000000, 18.128773)">
                        <path d="M2.69105634,5.68219718 L2.69105634,5.29829376 C2.39928974,5.56702616 2.06145473,5.76676258 1.63905433,5.76676258 C0.771325956,5.76676258 0.0879778672,5.13716097 0.0879778672,3.60122736 C0.0879778672,2.21906841 0.840535211,1.56632596 1.67744467,1.56632596 C2.08438229,1.56632596 2.46839235,1.78152515 2.69105634,2.02701006 L2.69105634,0.491396378 L3.47432596,0.0844587525 L3.47432596,5.68219718 L2.69105634,5.68219718 Z M2.69884105,2.82584909 C2.52224547,2.58782897 2.15359155,2.29595573 1.75433199,2.29595573 C1.18615493,2.29595573 0.879032193,2.72582093 0.879032193,3.5782998 C0.879032193,4.59180483 1.20140443,5.0371328 1.78504427,5.0371328 C2.16126962,5.0371328 2.4915332,4.78386318 2.69884105,4.52270221 L2.69884105,2.82584909 Z" id="Shape"></path>
                        <path d="M7.81552716,3.94684708 L5.15102414,3.94684708 C5.2354829,4.72243863 5.6731328,5.05259557 6.16463581,5.05259557 C6.50257746,5.05259557 6.77120322,4.92974648 7.03993561,4.73022334 L7.50840443,5.23697586 C7.15521328,5.57481087 6.73302616,5.76686922 6.1185674,5.76686922 C5.17416499,5.76686922 4.3754326,5.0066338 4.3754326,3.67054326 C4.3754326,2.30384708 5.09727767,1.56653924 6.14160161,1.56653924 C7.28574044,1.56653924 7.83877465,2.49569215 7.83877465,3.58619115 C7.83866801,3.73186117 7.82320523,3.86249497 7.81552716,3.94684708 Z M6.08774849,2.2805996 C5.55796177,2.2805996 5.2354829,2.64925352 5.16627364,3.29431791 L7.03982897,3.29431791 C7.00154527,2.7412837 6.74059759,2.2805996 6.08774849,2.2805996 Z" id="Shape"></path>
                        <path d="M9.95205634,5.76676258 C9.40680684,5.76676258 8.81548893,5.55177666 8.40844467,5.25233199 L8.76942052,4.65333602 C9.14575252,4.91449698 9.56793964,5.05259557 9.94437827,5.05259557 C10.4434527,5.05259557 10.6814728,4.89135614 10.6814728,4.60726761 C10.6814728,4.30003823 10.3282817,4.15426157 9.74464185,3.93159759 C8.87691348,3.5935493 8.56221932,3.3017827 8.56221932,2.66439638 C8.56221932,1.94265795 9.13039638,1.56632596 9.9367002,1.56632596 C10.4434527,1.56632596 10.9425272,1.75070624 11.3033964,2.0118672 L10.9578833,2.61843461 C10.6277264,2.38809256 10.2976761,2.27292153 9.91355936,2.27292153 C9.52965594,2.27292153 9.36073843,2.42658954 9.36073843,2.64157545 C9.36073843,2.84109859 9.49883702,2.98708853 10.1055111,3.22521529 C11.0038451,3.57072837 11.4645292,3.8165332 11.4645292,4.57655533 C11.4646358,5.46731791 10.7428974,5.76676258 9.95205634,5.76676258 Z" id="Path"></path>
                    </g>
                    <g transform="translate(0.213280, 27.299799)">
                        <path d="M1.84817505,5.76676258 C1.44123742,5.76676258 1.05722736,5.55177666 0.83456338,5.30607847 L0.83456338,6.75734004 L0.0512937626,7.16427767 L0.0512937626,1.65089135 L0.83456338,1.65089135 L0.83456338,2.03479477 C1.12632998,1.76606237 1.46416499,1.56632596 1.88645875,1.56632596 C2.75418712,1.56632596 3.43764185,2.19614085 3.43764185,3.73186117 C3.43764185,5.11402012 2.68519115,5.76676258 1.84817505,5.76676258 Z M1.74057545,2.29595573 C1.3643501,2.29595573 1.03419316,2.54922535 0.826885312,2.81038632 L0.826885312,4.50745272 C1.00348089,4.74525956 1.37202817,5.0371328 1.77128773,5.0371328 C2.33957143,5.0371328 2.64669416,4.60726761 2.64669416,3.75500201 C2.64669416,2.7412837 2.32421529,2.29595573 1.74057545,2.29595573 Z" id="Shape"></path>
                        <path d="M6.80746076,5.68219718 L6.80746076,3.40170423 C6.80746076,2.58772233 6.50023139,2.29595573 5.97812274,2.29595573 C5.44822938,2.29595573 5.14878471,2.67207445 5.14878471,3.3248169 L5.14878471,5.68209054 L4.35794366,5.68209054 L4.35794366,0.498967807 L5.14878471,0.0842454728 L5.14878471,2.03458149 C5.34852113,1.74281489 5.74778068,1.56611268 6.16250302,1.56611268 C7.099334,1.56611268 7.59840845,2.18057143 7.59840845,3.37067203 L7.59840845,5.6819839 L6.80746076,5.6819839 L6.80746076,5.68219718 Z" id="Path"></path>
                        <path d="M10.9151207,5.68219718 L10.9151207,5.28293763 C10.638497,5.55934809 10.2469155,5.76676258 9.80937223,5.76676258 C9.15662978,5.76676258 8.41185714,5.39810865 8.41185714,4.40753119 C8.41185714,3.50919718 9.1028833,3.10225956 10.0166801,3.10225956 C10.3930121,3.10225956 10.6925634,3.15600604 10.9152274,3.25571429 L10.9152274,2.95616298 C10.9152274,2.51851308 10.6463883,2.27281489 10.154992,2.27281489 C9.74026962,2.27281489 9.41789738,2.34970221 9.10298994,2.52629779 L8.79576056,1.92730181 C9.17987726,1.68928169 9.60974245,1.56632596 10.1779195,1.56632596 C11.0764668,1.56632596 11.6907123,2.00408249 11.6907123,2.91787928 L11.6907123,5.68219718 L10.9151207,5.68219718 L10.9151207,5.68219718 Z M10.9151207,3.96220322 C10.6999215,3.85471026 10.4236177,3.78560765 9.99364588,3.78560765 C9.48668008,3.78560765 9.16430785,4.0159497 9.16430785,4.38460362 C9.16430785,4.78386318 9.41779074,5.05259557 9.9398994,5.05259557 C10.3620865,5.05259557 10.7307404,4.79164789 10.9151207,4.53816499 L10.9151207,3.96220322 L10.9151207,3.96220322 Z" id="Shape"></path>
                        <path d="M14.940668,2.48801408 C14.7717505,2.39577062 14.5951549,2.34202414 14.3341006,2.34202414 C13.8348129,2.34202414 13.5430463,2.69521529 13.5430463,3.37867002 L13.5430463,5.68230382 L12.7522052,5.68230382 L12.7522052,1.65099799 L13.5430463,1.65099799 L13.5430463,2.03490141 C13.7274266,1.76616901 14.0651549,1.5664326 14.4647344,1.5664326 C14.7871066,1.5664326 14.9868431,1.62785714 15.1480825,1.73556338 L14.940668,2.48801408 Z" id="Path"></path>
                        <path d="M20.5472575,5.68219718 L20.5472575,3.40170423 C20.5472575,2.58772233 20.2939879,2.29595573 19.7718793,2.29595573 C19.2420926,2.29595573 18.9962877,2.67207445 18.9962877,3.3248169 L18.9962877,5.68209054 L18.2054467,5.68209054 L18.2054467,3.40159759 C18.2054467,2.58761569 17.9519638,2.29584909 17.4298551,2.29584909 C16.8999618,2.29584909 16.6542636,2.67196781 16.6542636,3.32471026 L16.6542636,5.6819839 L15.8634225,5.6819839 L15.8634225,1.65067807 L16.6542636,1.65067807 L16.6542636,2.03458149 C16.854,1.74281489 17.1995131,1.56611268 17.6142354,1.56611268 C18.1592716,1.56611268 18.5048913,1.77352716 18.7199839,2.15743058 C19.0117505,1.79645473 19.3265513,1.56611268 19.9560463,1.56611268 C20.8928773,1.56611268 21.3382052,2.18057143 21.3382052,3.37067203 L21.3382052,5.6819839 L20.5472575,5.6819839 L20.5472575,5.68219718 Z" id="Path"></path>
                        <path d="M24.6633421,5.68219718 L24.6633421,5.28293763 C24.3867183,5.55934809 23.9951368,5.76676258 23.5575936,5.76676258 C22.9048511,5.76676258 22.1600785,5.39810865 22.1600785,4.40753119 C22.1600785,3.50919718 22.8511046,3.10225956 23.7649014,3.10225956 C24.1412334,3.10225956 24.4407847,3.15600604 24.6634487,3.25571429 L24.6634487,2.95616298 C24.6634487,2.51851308 24.3946097,2.27281489 23.9032133,2.27281489 C23.4884909,2.27281489 23.1661187,2.34970221 22.8512113,2.52629779 L22.5439819,1.92730181 C22.9280986,1.68928169 23.3579638,1.56632596 23.9261408,1.56632596 C24.8246881,1.56632596 25.4389336,2.00408249 25.4389336,2.91787928 L25.4389336,5.68219718 L24.6633421,5.68219718 L24.6633421,5.68219718 Z M24.6633421,3.96220322 C24.4481429,3.85471026 24.171839,3.78560765 23.7418672,3.78560765 C23.2349014,3.78560765 22.9125292,4.0159497 22.9125292,4.38460362 C22.9125292,4.78386318 23.1660121,5.05259557 23.6881207,5.05259557 C24.1103078,5.05259557 24.4789618,4.79164789 24.6633421,4.53816499 L24.6633421,3.96220322 Z" id="Shape"></path>
                        <path d="M29.0251247,2.81038632 C28.6949678,2.47255131 28.4032012,2.3188833 28.0422254,2.3188833 C27.4663702,2.3188833 27.0977163,2.83352716 27.0977163,3.65497384 C27.0977163,4.44602817 27.4355513,5.01420523 28.0651529,5.01420523 C28.4414849,5.01420523 28.6641489,4.84528773 28.9790563,4.51491751 L29.4858089,5.01420523 C29.1709014,5.41346479 28.7716419,5.76676258 28.0422254,5.76676258 C27.059326,5.76676258 26.2990905,4.93742455 26.2990905,3.67811469 C26.2990905,2.34202414 27.0822535,1.56632596 28.0651529,1.56632596 C28.6564708,1.56632596 29.1171549,1.80434608 29.4935936,2.24988732 L29.0251247,2.81038632 Z" id="Path"></path>
                        <path d="M30.7164326,1.1287827 C30.4321308,1.1287827 30.2017887,0.898440644 30.2017887,0.622030181 C30.2017887,0.33794165 30.4321308,0.107599598 30.7164326,0.107599598 C30.9928431,0.107599598 31.2231851,0.33794165 31.2231851,0.622030181 C31.2231851,0.898440644 30.9927364,1.1287827 30.7164326,1.1287827 Z M30.3168531,5.68219718 L30.3168531,1.65089135 L31.1079074,1.65089135 L31.1079074,5.68219718 L30.3168531,5.68219718 Z" id="Shape"></path>
                        <path d="M35.4308732,3.94684708 L32.7665835,3.94684708 C32.8509356,4.72243863 33.2886922,5.05259557 33.7800885,5.05259557 C34.1179235,5.05259557 34.3867626,4.92974648 34.655495,4.73022334 L35.1239638,5.23697586 C34.7707726,5.57481087 34.3483722,5.76686922 33.7341268,5.76686922 C32.7896177,5.76686922 31.990992,5.0066338 31.990992,3.67054326 C31.990992,2.30384708 32.7127304,1.56653924 33.7570543,1.56653924 C34.9012998,1.56653924 35.4541207,2.49569215 35.4541207,3.58619115 C35.4539074,3.73186117 35.4385513,3.86249497 35.4308732,3.94684708 Z M33.7030946,2.2805996 C33.1734145,2.2805996 32.850829,2.64925352 32.7816197,3.29431791 L34.6552817,3.29431791 C34.6171046,2.7412837 34.355837,2.2805996 33.7030946,2.2805996 Z" id="Shape"></path>
                        <path d="M37.5674024,5.76676258 C37.0223662,5.76676258 36.4310483,5.55177666 36.024004,5.25233199 L36.3849799,4.65333602 C36.7610986,4.91449698 37.183499,5.05259557 37.5597243,5.05259557 C38.0590121,5.05259557 38.2968189,4.89135614 38.2968189,4.60726761 C38.2968189,4.30003823 37.9437344,4.15426157 37.3602012,3.93159759 C36.4924728,3.5935493 36.1775654,3.3017827 36.1775654,2.66439638 C36.1775654,1.94265795 36.7457425,1.56632596 37.5520463,1.56632596 C38.0590121,1.56632596 38.5580865,1.75070624 38.9189557,2.0118672 L38.5734427,2.61843461 C38.2430724,2.38809256 37.9130221,2.27292153 37.5291187,2.27292153 C37.145002,2.27292153 36.9760845,2.42658954 36.9760845,2.64157545 C36.9760845,2.84109859 37.1143964,2.98708853 37.7208571,3.22521529 C38.6194044,3.57072837 39.0800885,3.8165332 39.0800885,4.57655533 C39.0800885,5.46731791 38.3582435,5.76676258 37.5674024,5.76676258 Z" id="Path"></path>
                    </g>
                    <rect id="Rectangle" x="8.35896378" y="4.67786318" width="30.9344044" height="1"></rect>
                    <rect id="Rectangle" x="0.0726217304" y="13.8488893" width="8.43691751" height="1"></rect>
                    <rect id="Rectangle" x="12.056167" y="23.0200221" width="27.2373078" height="1"></rect>
                </g>
            </g>
        </g>
    </g>
</svg>